<?xml version="1.0" encoding="utf-8"?>
<!-- Generator: Adobe Illustrator 17.1.0, SVG Export Plug-In . SVG Version: 6.00 Build 0)  -->
<!DOCTYPE svg PUBLIC "-//W3C//DTD SVG 1.1//EN" "http://www.w3.org/Graphics/SVG/1.1/DTD/svg11.dtd">
<svg version="1.1" id="Layer_1" xmlns="http://www.w3.org/2000/svg" xmlns:xlink="http://www.w3.org/1999/xlink" x="0px" y="0px"
	 viewBox="0 0 574.7 202.9" enable-background="new 0 0 574.7 202.9" xml:space="preserve">
<g>
	<path fill-rule="evenodd" clip-rule="evenodd" fill="#FFFFFF" d="M211.7,27L211.7,27c-21.6-9.6-44.6-16.8-67.6-7.5
		c-23.2,9.4-35.6,30.7-35.6,55.3c0,24.2,13,44.1,35.7,52.9c22.3,8.6,48.8,2.8,69.8-7l-10.5-21.2c-0.8-1.6-2.6-2.3-4.3-1.6
		c-16.4,6.4-38,13.6-52.1-0.9c-11.1-11.4-10.5-34-0.1-45.8c14-15.9,34.6-8.7,50.7-1.2c1.4,0.7,3.1,0,3.8-1.5L211.7,27z M331.2,135.2
		V19.5H304c-1.6,0-3,1.3-3,3v78.3c-14.4,9.1-42.1,5.5-42.1-15.8V22.5c0-1.6-1.3-3-3-3h-27v65.7c0,28.4,22.1,46.6,50.2,46.6
		c9.9,0,21.9-1.6,31.2-5l16.2,10.8c0.9,0.6,2,0.7,3,0.2C330.6,137.3,331.2,136.3,331.2,135.2z M431.2,73.5
		c0-17.6-14.3-31.9-31.9-31.9c-4.9,0-9.6,1.1-13.7,3.1v57.6c4.2,2,8.8,3.1,13.7,3.1C416.9,105.4,431.2,91.1,431.2,73.5z M76.5,49.4
		C66.2,42.7,50.9,38.5,39.3,44c-5.7,2.7-7,8.6-0.5,11.4c13.5,5.7,27.1,4.9,40.6,12.5C89.9,74,95.2,82.6,95,94.9
		c-0.4,26.3-26.7,37.3-49.5,36.9c-15.2-0.3-30.4-5.1-45.5-14.5l10.3-20.5c0.7-1.4,2.5-2,3.9-1.3c12.4,6.3,32.1,14.1,45,7
		c5.2-2.9,7.8-10.2,0.9-13.1c-17.3-6.8-40.3-5.7-51.5-23c-8.4-13-4.2-30.2,10.3-40.7c21.7-15.8,53.6-12.8,73.5,2.4L80.6,48.4
		c-0.4,0.7-1.1,1.2-1.9,1.4C78,50,77.2,49.9,76.5,49.4z M376.3,20l-16-10.7c-0.9-0.6-2-0.7-3-0.2c-1,0.5-1.6,1.5-1.6,2.6v147.1
		c0,1.6,1.3,3,3,3l27,0v-31.7c6,1.1,11.2,1.8,18,1.7c32.2,0,58.4-26.1,58.4-58.4c0-32.2-26.1-58.4-58.4-58.4
		C394.4,15.1,385.2,17.1,376.3,20z"/>
	<path fill-rule="evenodd" clip-rule="evenodd" fill="#FF6E00" d="M486,41.7c3.8,9.8,5.8,20.5,5.8,31.6c0,11.2-2.1,21.8-5.8,31.6
		l26.3,15.2c6.2-14.4,9.6-30.2,9.6-46.9s-3.4-32.5-9.6-46.9L486,41.7z M532,15.1c8.1,17.7,12.5,37.5,12.5,58.2
		c0,20.8-4.5,40.5-12.5,58.2l26.2,15.1c10.6-22.2,16.5-47.1,16.5-73.3S568.7,22.2,558.2,0L532,15.1z"/>
	<g>
		<path fill="#FFFFFF" d="M3.7,152.4c0-0.9,0.5-1.4,1.4-1.4h1.1c0.9,0,1.4,0.5,1.4,1.4v12.8c0,1.3-0.2,2.3-0.2,2.3h0.1
			c0,0,2.5-5.9,9.8-5.9c7.7,0,12.4,6.1,12.4,14.9c0,9.1-5.4,15-12.9,15c-6.9,0-9.5-6-9.5-6H7.1c0,0,0.2,0.9,0.2,2.1v1.9
			c0,0.8-0.5,1.3-1.4,1.3H5c-0.9,0-1.4-0.5-1.4-1.4V152.4z M16.5,188.2c5.1,0,9.3-4.2,9.3-11.5c0-7-3.8-11.5-9-11.5
			c-4.8,0-9.3,3.4-9.3,11.5C7.4,182.6,10.4,188.2,16.5,188.2z"/>
		<path fill="#FFFFFF" d="M34.8,198.8c0.6,0.3,1.5,0.7,2.5,0.7c2.6,0,4.3-2.2,5.3-4.7l1.7-4L33.1,164c-0.4-1,0.1-1.6,1.1-1.6h1.3
			c0.9,0,1.3,0.3,1.6,1.1l8,19.8c0.5,1.4,1,3,1,3h0.1c0,0,0.4-1.6,1-3l7.8-19.7c0.3-0.8,0.7-1.1,1.6-1.1h1.3c1,0,1.5,0.6,1.1,1.6
			l-13.5,32.7c-1.5,3.7-4.4,6.1-8.2,6.1c-1.6,0-3-0.6-3.9-1c-0.7-0.3-1-1.1-0.6-1.8l0.3-0.6C33.5,198.7,34.1,198.5,34.8,198.8z"/>
		<path fill="#FFFFFF" d="M76.8,186.4l0.5-0.6c0.5-0.7,1.1-0.7,1.9-0.2c1.3,1,3.9,2.6,7.6,2.6c3.2,0,5.8-1.6,5.8-4.6
			c0-6.4-15.3-4.5-15.3-13.9c0-5.3,4.5-8,9.7-8c4.1,0,6.6,1.5,7.8,2.3c0.7,0.5,0.9,1.1,0.4,1.9l-0.4,0.6c-0.5,0.8-1.1,0.9-1.9,0.4
			c-1.1-0.7-3.1-1.8-6.1-1.8c-3,0-5.6,1.3-5.6,4.4c0,6.6,15.2,4.5,15.2,14c0,4.7-4,8.1-9.7,8.1c-5,0-8.2-2.1-9.7-3.3
			C76.4,187.8,76.3,187.2,76.8,186.4z"/>
		<path fill="#FFFFFF" d="M103.1,163.8c0-0.9,0.5-1.4,1.4-1.4h0.9c0.9,0,1.4,0.5,1.4,1.3v2c0,1.1-0.2,1.9-0.2,1.9h0.1
			c0,0,2.4-6,10-6c7.7,0,12.4,6.1,12.4,15c0,9-5.4,14.9-12.8,14.9c-6.9,0-9.4-5.8-9.4-5.8h-0.1c0,0,0.2,1,0.2,2.5v12.6
			c0,0.9-0.5,1.4-1.4,1.4h-1.1c-0.9,0-1.4-0.5-1.4-1.4V163.8z M115.9,188.2c5.1,0,9.3-4.2,9.3-11.5c0-7-3.8-11.5-9-11.5
			c-4.8,0-9.3,3.4-9.3,11.5C106.9,182.5,110.1,188.2,115.9,188.2z"/>
		<path fill="#FFFFFF" d="M136.1,163.8c0-0.9,0.5-1.4,1.4-1.4h1c0.9,0,1.4,0.5,1.4,1.4v3.9c0,1.2-0.2,2.3-0.2,2.3h0.1
			c1.4-4.1,4.7-7.7,9.2-7.7c1,0,1.5,0.5,1.5,1.4v1c0,0.9-0.6,1.4-1.6,1.4c-6,0-8.9,6.9-8.9,12.8v10.7c0,0.9-0.5,1.4-1.4,1.4h-1.1
			c-0.9,0-1.4-0.5-1.4-1.4V163.8z"/>
		<path fill="#FFFFFF" d="M155.2,154.5v-2c0-0.9,0.5-1.4,1.4-1.4h1.4c0.9,0,1.4,0.5,1.4,1.4v2c0,0.9-0.5,1.4-1.4,1.4h-1.4
			C155.6,155.9,155.2,155.4,155.2,154.5z M155.3,163.8c0-0.9,0.5-1.4,1.4-1.4h1.1c0.9,0,1.4,0.5,1.4,1.4v25.7c0,0.9-0.5,1.4-1.4,1.4
			h-1.1c-0.9,0-1.4-0.5-1.4-1.4V163.8z"/>
		<path fill="#FFFFFF" d="M168,163.8c0-0.9,0.5-1.4,1.4-1.4h1c0.9,0,1.4,0.5,1.4,1.4v3.3c0,1.1-0.2,2-0.2,2h0.1
			c1.1-2.6,4.8-7.4,11.5-7.4c7.1,0,9.6,4,9.6,11.1v16.8c0,0.9-0.5,1.4-1.4,1.4h-1.1c-0.9,0-1.4-0.5-1.4-1.4v-15.7
			c0-4.5-0.7-8.5-6.3-8.5c-6.1,0-10.9,5-10.9,11.6v12.6c0,0.9-0.5,1.4-1.4,1.4h-1.1c-0.9,0-1.4-0.5-1.4-1.4V163.8z"/>
		<path fill="#FFFFFF" d="M201.2,152.4c0-0.9,0.5-1.4,1.4-1.4h1.1c0.9,0,1.4,0.5,1.4,1.4v20.9h4.6l7.9-10.1c0.5-0.6,1-0.9,1.7-0.9
			h1.4c1.1,0,1.5,0.8,0.8,1.7l-8.6,10.7v0.1l9.9,14.3c0.6,1,0.2,1.7-1,1.7h-1.5c-0.8,0-1.3-0.3-1.6-1l-8.9-13.3h-4.7v12.8
			c0,0.9-0.5,1.4-1.4,1.4h-1.1c-0.9,0-1.4-0.5-1.4-1.4V152.4z"/>
		<path fill="#FFFFFF" d="M228.8,152.4c0-0.9,0.5-1.4,1.4-1.4h1.1c0.9,0,1.4,0.5,1.4,1.4v31.1c0,3.6,1.7,4,3,4.1
			c0.7,0.1,1.2,0.4,1.2,1.2v0.9c0,0.9-0.4,1.4-1.5,1.4c-2.3,0-6.5-0.7-6.5-7V152.4z"/>
		<path fill="#FFFFFF" d="M242.7,163.8c0-0.9,0.5-1.4,1.4-1.4h1c0.9,0,1.4,0.5,1.4,1.4v3.9c0,1.2-0.2,2.3-0.2,2.3h0.1
			c1.4-4.1,4.7-7.7,9.2-7.7c1,0,1.5,0.5,1.5,1.4v1c0,0.9-0.6,1.4-1.6,1.4c-6,0-8.9,6.9-8.9,12.8v10.7c0,0.9-0.5,1.4-1.4,1.4h-1.1
			c-0.9,0-1.4-0.5-1.4-1.4V163.8z"/>
	</g>
</g>
</svg>
